<?xml version="1.0" standalone="no"?>
<!DOCTYPE svg PUBLIC "-//W3C//DTD SVG 20010904//EN"
 "http://www.w3.org/TR/2001/REC-SVG-20010904/DTD/svg10.dtd">
<svg version="1.0" xmlns="http://www.w3.org/2000/svg"
 width="500.000000pt" height="500.000000pt" viewBox="0 0 500.000000 500.000000"
 preserveAspectRatio="xMidYMid meet">
<metadata>
Created by potrace 1.11, written by Peter Selinger 2001-2013
</metadata>
<g transform="translate(0.000000,500.000000) scale(0.100000,-0.100000)"
fill="#000000" stroke="none">
<path d="M3160 3428 c-204 -21 -419 -144 -548 -313 -81 -107 -147 -260 -164
-380 -3 -17 -11 -20 -60 -21 -30 -1 -71 -4 -91 -8 -29 -5 -37 -3 -50 17 -45
69 -131 134 -214 161 -211 70 -436 -27 -529 -229 -29 -63 -38 -101 -43 -186
-1 -11 -14 -19 -42 -23 -77 -12 -164 -60 -231 -128 -35 -35 -84 -76 -110 -91
-55 -32 -111 -94 -141 -157 -18 -37 -22 -63 -22 -150 0 -90 4 -112 24 -152 35
-71 92 -130 163 -169 l63 -34 830 0 830 0 63 29 c70 33 153 114 173 171 11 30
16 34 38 29 15 -3 78 -8 141 -10 97 -3 130 0 215 21 168 42 302 120 418 243
257 276 290 711 75 1025 -78 116 -216 233 -343 291 -123 57 -289 81 -445 64z
m143 -70 c27 -37 61 -134 77 -218 6 -30 12 -65 14 -77 4 -21 3 -21 -127 -20
-110 2 -132 4 -132 17 1 32 17 99 46 192 21 71 36 102 55 117 35 27 39 27 67
-11z m-149 -37 c-24 -60 -44 -131 -64 -233 -10 -51 -14 -58 -36 -59 -13 -1
-27 -2 -31 -3 -5 -1 -27 -6 -50 -10 -23 -4 -69 -16 -102 -26 l-60 -18 19 47
c59 149 167 277 280 330 36 17 66 31 66 31 1 0 -9 -26 -22 -59z m311 4 c58
-38 79 -57 127 -117 37 -44 111 -177 120 -214 5 -20 5 -20 -48 -3 -30 10 -90
23 -134 30 -44 7 -80 15 -81 18 0 3 -2 13 -4 21 -1 8 -8 43 -14 77 -12 62 -50
184 -70 221 -11 20 -10 21 21 10 18 -6 56 -26 83 -43z m-523 -39 c-67 -70
-119 -153 -159 -251 -31 -78 -33 -80 -95 -113 -66 -36 -130 -82 -161 -116 -18
-20 -18 -20 -14 4 19 102 125 277 223 371 33 30 93 74 134 98 41 23 82 46 90
51 35 21 30 6 -18 -44z m658 25 c212 -105 349 -271 415 -500 6 -21 -1 -17 -46
23 -30 26 -85 64 -123 84 -62 34 -70 41 -87 87 -42 112 -118 233 -184 294 -24
22 -42 41 -39 41 3 0 32 -13 64 -29z m-224 -320 l32 -1 7 -97 c4 -54 8 -134 9
-178 l1 -80 -162 -2 -161 -2 3 102 c4 87 12 206 18 242 3 16 99 22 253 16z
m-300 -19 c-5 -8 -15 -140 -21 -262 -2 -36 -3 -68 -4 -72 -1 -3 -69 -6 -152
-6 l-151 1 7 71 c4 39 9 80 11 91 2 11 7 36 10 55 11 57 21 68 81 85 123 36
230 54 219 37z m461 -2 c92 -15 191 -48 202 -68 14 -26 37 -173 36 -232 l0
-35 -147 -1 c-82 -1 -148 1 -149 5 -1 3 -2 35 -4 71 -6 133 -16 254 -21 262
-7 10 7 10 83 -2z m-817 -151 c-10 -55 -14 -95 -19 -171 -2 -26 -37 -20 -118
20 l-72 35 18 26 c33 46 74 83 136 122 32 21 61 37 63 35 1 -2 -2 -32 -8 -67z
m1187 4 c27 -21 62 -52 77 -70 25 -30 56 -92 56 -112 0 -6 -44 -10 -105 -9
-91 0 -105 2 -106 16 -2 46 -14 145 -26 210 l-6 34 30 -15 c16 -9 52 -33 80
-54z m-860 -247 c4 -3 7 -38 9 -77 1 -39 5 -111 9 -160 3 -49 4 -93 1 -98 -5
-8 -150 19 -213 40 -28 9 -32 15 -41 69 -6 33 -21 81 -32 107 -24 52 -34 98
-27 116 5 13 282 15 294 3z m365 5 c15 -1 17 -12 13 -98 -7 -173 -15 -237 -32
-250 -11 -8 -55 -12 -134 -11 -116 1 -132 4 -136 23 -6 39 -14 136 -17 227 -5
104 -4 107 17 110 18 2 221 2 289 -1z m341 0 l28 -1 -6 -62 c-6 -73 -11 -106
-26 -169 -10 -46 -11 -47 -77 -69 -37 -12 -100 -27 -140 -35 l-73 -12 7 111
c4 61 8 138 8 171 1 37 6 62 13 65 10 4 149 5 266 1z m286 -6 c12 -12 -54
-118 -95 -153 -51 -42 -144 -97 -144 -85 0 5 4 34 10 64 5 30 12 77 14 104 2
28 4 55 5 62 1 6 8 13 18 15 26 5 185 -1 192 -7z m-19 -160 c0 -3 -14 -41 -31
-85 -64 -168 -201 -326 -353 -407 -44 -24 -83 -43 -88 -43 -5 0 15 25 45 55
59 61 129 175 162 267 21 57 26 63 78 89 62 30 167 106 167 120 0 5 5 9 10 9
6 0 10 -2 10 -5z m-326 -232 c-65 -149 -161 -261 -270 -314 -35 -18 -66 -30
-68 -28 -2 2 7 26 20 53 13 27 33 94 45 150 31 149 27 142 101 151 35 4 88 15
118 25 82 27 83 27 54 -37z m-620 -4 c6 -5 11 -14 12 -21 1 -7 5 -33 9 -57 3
-23 10 -54 15 -67 5 -13 8 -24 5 -24 -6 0 30 -101 49 -138 19 -37 19 -37 -32
-17 -37 15 -39 18 -39 63 1 101 -25 171 -88 241 l-35 39 47 -5 c27 -3 52 -9
57 -14z m320 -15 c-1 -5 -4 -28 -8 -51 -9 -69 -36 -164 -62 -220 -40 -84 -77
-83 -117 5 -26 56 -51 137 -61 197 -3 17 -8 41 -11 55 l-6 25 133 -1 c73 -1
132 -5 132 -10z"/>
</g>
</svg>
